<svg xmlns="http://www.w3.org/2000/svg" viewBox="0 0 300 300" fill="none">
  <g opacity="0.5">
    <circle cx="50" cy="60" r="1.5" fill="#7D896D" opacity="0.6"/>
    <circle cx="100" cy="40" r="2.5" fill="#7D896D" opacity="0.7"/>
    <circle cx="160" cy="70" r="1.5" fill="#7D896D" opacity="0.5"/>
    <circle cx="220" cy="50" r="3" fill="#7D896D" opacity="0.6"/>
    <circle cx="270" cy="80" r="1.5" fill="#7D896D" opacity="0.4"/>
    <circle cx="70" cy="130" r="2" fill="#7D896D" opacity="0.5"/>
    <circle cx="140" cy="110" r="3" fill="#7D896D" opacity="0.6"/>
    <circle cx="200" cy="150" r="2" fill="#7D896D" opacity="0.5"/>
    <circle cx="260" cy="120" r="2.5" fill="#7D896D" opacity="0.6"/>
    <circle cx="40" cy="200" r="2" fill="#7D896D" opacity="0.5"/>
    <circle cx="110" cy="230" r="3.5" fill="#7D896D" opacity="0.6"/>
    <circle cx="180" cy="190" r="2" fill="#7D896D" opacity="0.4"/>
    <circle cx="240" cy="240" r="3" fill="#7D896D" opacity="0.5"/>
    <circle cx="290" cy="210" r="1.5" fill="#7D896D" opacity="0.3"/>
    <circle cx="80" cy="270" r="2.5" fill="#7D896D" opacity="0.5"/>
    <circle cx="150" cy="290" r="1.5" fill="#7D896D" opacity="0.4"/>
    <circle cx="210" cy="260" r="2" fill="#7D896D" opacity="0.45"/>
    <circle cx="270" cy="280" r="3" fill="#7D896D" opacity="0.5"/>
    <circle cx="30" cy="100" r="1" fill="#7D896D" opacity="0.3"/>
    <circle cx="120" cy="60" r="1" fill="#7D896D" opacity="0.25"/>
    <circle cx="190" cy="90" r="1.5" fill="#7D896D" opacity="0.3"/>
    <circle cx="250" cy="170" r="1" fill="#7D896D" opacity="0.25"/>
    <circle cx="60" cy="170" r="1.5" fill="#7D896D" opacity="0.3"/>
    <circle cx="170" cy="220" r="1" fill="#7D896D" opacity="0.2"/>
    <ellipse cx="150" cy="150" rx="2" ry="3.5" fill="#7D896D" opacity="0.6"/>
    <ellipse cx="230" cy="90" rx="3" ry="1.5" fill="#7D896D" opacity="0.5"/>
    <ellipse cx="80" cy="220" rx="1.5" ry="3" fill="#7D896D" opacity="0.4"/>
    <ellipse cx="270" cy="140" rx="2.5" ry="1" fill="#7D896D" opacity="0.35"/>
    <path d="M140 140 C 142 138, 145 137, 148 138 C 150 139, 150 142, 148 144 C 145 146, 142 145, 140 144 Z" fill="#7D896D" opacity="0.5"/>
    <path d="M200 110 C 202 108, 205 107, 208 108 C 210 109, 210 112, 208 114 C 205 116, 202 115, 200 114 Z" fill="#7D896D" opacity="0.45"/>
  </g>
</svg>